<?xml version="1.0" encoding="utf-8"?>
<!-- Generator: Adobe Illustrator 24.1.2, SVG Export Plug-In . SVG Version: 6.00 Build 0)  -->
<svg version="1.1" id="Слой_1" xmlns="http://www.w3.org/2000/svg" xmlns:xlink="http://www.w3.org/1999/xlink" x="0px" y="0px"
	 viewBox="0 0 32 32" style="enable-background:new 0 0 32 32;" xml:space="preserve">
<style type="text/css">
	.st0{fill:none;stroke:#707071;stroke-width:2;stroke-linecap:round;stroke-linejoin:round;stroke-miterlimit:10;}
</style>
<path class="st0" d="M26.7,19.4c2.2,2.1,2.7,3.1,2.8,3.2c0.9,1.5-1,1.7-1,1.7h-3.8c0,0-0.8,0.2-1.9-0.6c-1.4-1-2.7-3.5-3.7-3.1
	c-0.9,0.3-1.1,1.1-1.1,2.2c0,0.4-0.3,0.5-1,0.5s-1.4,0-1.7,0c-2.3,0-4.4,0.1-6.9-2.6c-3.5-3.8-6.7-10.5-6.7-10.5s-0.2-0.4,0-0.6
	c0.2-0.3,0.8-0.2,0.8-0.2h4c0,0,0.4,0.1,0.6,0.3c0.2,0.2,0.3,0.5,0.3,0.5s0.7,1.3,1.5,2.8c1.7,2.9,2.4,3.5,3,3.2
	c0.8-0.5,0.6-4.1,0.6-4.1s0-1.3-0.4-1.9c-0.3-0.5-1-0.6-1.2-0.6S11,9,11.5,8.8c0.7-0.4,2-0.4,3.5-0.4c1.2,0,1.2,0.1,1.7,0.2
	c1.4,0.3,0.9,1.6,0.9,4.7c0,1-0.2,2.4,0.5,2.8c0.3,0.2,1.4,0,3.2-3.2c0.9-1.5,1.6-3,1.6-3s0.1-0.3,0.4-0.4c0.4-0.2,0.4-0.2,0.7-0.2
	s3.5,0,4.2,0s1.4,0,1.5,0.4c0.2,0.6-0.5,1.7-2.2,4C24.6,17.5,24.3,17.2,26.7,19.4z"/>
</svg>
